<svg width="235" height="35" viewBox="0 0 235 35" fill="none" xmlns="http://www.w3.org/2000/svg">
<path d="M11.2319 6.336C9.07194 6.336 7.43994 6.816 6.33594 7.776C5.23194 8.736 4.67994 10.152 4.67994 12.024V14.184H15.6599V18.144H4.67994V27.792H-6.10352e-05V12.024C-6.10352e-05 8.976 0.971939 6.588 2.91594 4.86C4.88394 3.108 7.58394 2.232 11.0159 2.232C12.4559 2.232 13.7999 2.388 15.0479 2.7C16.2959 3.012 17.3879 3.468 18.3239 4.068L16.8479 7.884C15.3599 6.852 13.4879 6.336 11.2319 6.336Z" fill="url(#paint0_linear_361_2898)"/>
<path d="M40.8988 8.568V27.792H36.6148V25.308C35.8708 26.22 34.9468 26.904 33.8428 27.36C32.7628 27.816 31.5627 28.044 30.2428 28.044C28.3708 28.044 26.6908 27.636 25.2028 26.82C23.7388 26.004 22.5868 24.852 21.7468 23.364C20.9308 21.876 20.5228 20.148 20.5228 18.18C20.5228 16.212 20.9308 14.496 21.7468 13.032C22.5868 11.544 23.7388 10.392 25.2028 9.576C26.6908 8.76 28.3708 8.352 30.2428 8.352C31.4908 8.352 32.6308 8.568 33.6628 9C34.7188 9.432 35.6308 10.068 36.3988 10.908V8.568H40.8988ZM30.7468 24.192C32.4028 24.192 33.7708 23.64 34.8508 22.536C35.9308 21.432 36.4708 19.98 36.4708 18.18C36.4708 16.38 35.9308 14.928 34.8508 13.824C33.7708 12.72 32.4028 12.168 30.7468 12.168C29.0908 12.168 27.7228 12.72 26.6428 13.824C25.5868 14.928 25.0588 16.38 25.0588 18.18C25.0588 19.98 25.5868 21.432 26.6428 22.536C27.7228 23.64 29.0908 24.192 30.7468 24.192Z" fill="url(#paint1_linear_361_2898)"/>
<path d="M59.1344 8.352C61.5584 8.352 63.5024 9.06 64.9664 10.476C66.4304 11.892 67.1624 13.992 67.1624 16.776V27.792H62.6624V17.352C62.6624 15.672 62.2664 14.412 61.4744 13.572C60.6824 12.708 59.5544 12.276 58.0904 12.276C56.4344 12.276 55.1264 12.78 54.1664 13.788C53.2064 14.772 52.7264 16.2 52.7264 18.072V27.792H48.2264V8.568H52.5104V11.052C53.2544 10.164 54.1904 9.492 55.3184 9.036C56.4464 8.58 57.7184 8.352 59.1344 8.352Z" fill="url(#paint2_linear_361_2898)"/>
<path d="M80.647 14.256C80.647 15.336 80.479 16.164 80.143 16.74C79.807 17.292 79.267 17.688 78.523 17.928C79.267 18.168 79.807 18.576 80.143 19.152C80.479 19.704 80.647 20.52 80.647 21.6V28.44C80.647 29.328 80.863 30 81.295 30.456C81.751 30.936 82.423 31.176 83.311 31.176H84.067V34.776H82.267C80.251 34.776 78.727 34.272 77.695 33.264C76.663 32.28 76.147 30.828 76.147 28.908V21.492C76.147 20.34 75.607 19.764 74.527 19.764H73.339V16.092H74.527C75.607 16.092 76.147 15.516 76.147 14.364V6.948C76.147 5.028 76.663 3.576 77.695 2.592C78.727 1.584 80.251 1.08 82.267 1.08H84.067V4.68H83.311C82.423 4.68 81.751 4.92 81.295 5.4C80.863 5.856 80.647 6.528 80.647 7.416V14.256Z" fill="url(#paint3_linear_361_2898)"/>
<path d="M99.8752 26.748C99.3472 27.18 98.6992 27.504 97.9312 27.72C97.1872 27.936 96.3952 28.044 95.5552 28.044C93.4432 28.044 91.8112 27.492 90.6592 26.388C89.5072 25.284 88.9312 23.676 88.9312 21.564V4.32H93.4312V8.712H98.5792V12.312H93.4312V21.456C93.4312 22.392 93.6592 23.112 94.1152 23.616C94.5952 24.096 95.2552 24.336 96.0952 24.336C97.1032 24.336 97.9432 24.072 98.6152 23.544L99.8752 26.748Z" fill="url(#paint4_linear_361_2898)"/>
<path d="M123.194 8.568V27.792H118.91V25.308C118.166 26.22 117.242 26.904 116.138 27.36C115.058 27.816 113.858 28.044 112.538 28.044C110.666 28.044 108.986 27.636 107.498 26.82C106.034 26.004 104.882 24.852 104.042 23.364C103.226 21.876 102.818 20.148 102.818 18.18C102.818 16.212 103.226 14.496 104.042 13.032C104.882 11.544 106.034 10.392 107.498 9.576C108.986 8.76 110.666 8.352 112.538 8.352C113.786 8.352 114.926 8.568 115.958 9C117.014 9.432 117.926 10.068 118.694 10.908V8.568H123.194ZM113.042 24.192C114.698 24.192 116.066 23.64 117.146 22.536C118.226 21.432 118.766 19.98 118.766 18.18C118.766 16.38 118.226 14.928 117.146 13.824C116.066 12.72 114.698 12.168 113.042 12.168C111.386 12.168 110.018 12.72 108.938 13.824C107.882 14.928 107.354 16.38 107.354 18.18C107.354 19.98 107.882 21.432 108.938 22.536C110.018 23.64 111.386 24.192 113.042 24.192Z" fill="url(#paint5_linear_361_2898)"/>
<path d="M136.462 28.044C134.902 28.044 133.378 27.84 131.89 27.432C130.402 27.024 129.214 26.508 128.326 25.884L130.054 22.464C130.918 23.04 131.95 23.508 133.15 23.868C134.374 24.204 135.574 24.372 136.75 24.372C139.438 24.372 140.782 23.664 140.782 22.248C140.782 21.576 140.434 21.108 139.738 20.844C139.066 20.58 137.974 20.328 136.462 20.088C134.878 19.848 133.582 19.572 132.574 19.26C131.59 18.948 130.726 18.408 129.982 17.64C129.262 16.848 128.902 15.756 128.902 14.364C128.902 12.54 129.658 11.088 131.17 10.008C132.706 8.904 134.77 8.352 137.362 8.352C138.682 8.352 140.002 8.508 141.322 8.82C142.642 9.108 143.722 9.504 144.562 10.008L142.834 13.428C141.202 12.468 139.366 11.988 137.326 11.988C136.006 11.988 134.998 12.192 134.302 12.6C133.63 12.984 133.294 13.5 133.294 14.148C133.294 14.868 133.654 15.384 134.374 15.696C135.118 15.984 136.258 16.26 137.794 16.524C139.33 16.764 140.59 17.04 141.574 17.352C142.558 17.664 143.398 18.192 144.094 18.936C144.814 19.68 145.174 20.736 145.174 22.104C145.174 23.904 144.394 25.344 142.834 26.424C141.274 27.504 139.15 28.044 136.462 28.044Z" fill="url(#paint6_linear_361_2898)"/>
<path d="M158.337 19.548L154.989 22.716V27.792H150.489V1.08H154.989V17.208L164.313 8.568H169.713L161.685 16.632L170.469 27.792H164.997L158.337 19.548Z" fill="url(#paint7_linear_361_2898)"/>
<path d="M183.24 16.092V19.764H182.016C181.512 19.764 181.116 19.908 180.828 20.196C180.564 20.484 180.432 20.916 180.432 21.492V28.908C180.432 30.828 179.904 32.28 178.848 33.264C177.816 34.272 176.292 34.776 174.276 34.776H172.476V31.176H173.232C174.144 31.176 174.816 30.936 175.248 30.456C175.704 30 175.932 29.328 175.932 28.44V21.6C175.932 20.496 176.088 19.668 176.4 19.116C176.736 18.564 177.276 18.168 178.02 17.928C177.276 17.688 176.736 17.292 176.4 16.74C176.088 16.188 175.932 15.36 175.932 14.256V7.416C175.932 6.528 175.704 5.856 175.248 5.4C174.816 4.92 174.144 4.68 173.232 4.68H172.476V1.08H174.276C176.292 1.08 177.816 1.584 178.848 2.592C179.904 3.576 180.432 5.028 180.432 6.948V14.364C180.432 14.94 180.564 15.372 180.828 15.66C181.116 15.948 181.512 16.092 182.016 16.092H183.24Z" fill="url(#paint8_linear_361_2898)"/>
<path d="M200.38 26.748C199.852 27.18 199.204 27.504 198.436 27.72C197.692 27.936 196.9 28.044 196.06 28.044C193.948 28.044 192.316 27.492 191.164 26.388C190.012 25.284 189.436 23.676 189.436 21.564V4.32H193.936V8.712H199.084V12.312H193.936V21.456C193.936 22.392 194.164 23.112 194.62 23.616C195.1 24.096 195.76 24.336 196.6 24.336C197.608 24.336 198.448 24.072 199.12 23.544L200.38 26.748Z" fill="url(#paint9_linear_361_2898)"/>
<path d="M205.539 8.568H210.039V27.792H205.539V8.568ZM207.807 5.4C206.991 5.4 206.307 5.148 205.755 4.644C205.203 4.116 204.927 3.468 204.927 2.7C204.927 1.932 205.203 1.296 205.755 0.791998C206.307 0.263999 206.991 0 207.807 0C208.623 0 209.307 0.252 209.859 0.755999C210.411 1.236 210.687 1.848 210.687 2.592C210.687 3.384 210.411 4.056 209.859 4.608C209.331 5.136 208.647 5.4 207.807 5.4Z" fill="url(#paint10_linear_361_2898)"/>
<path d="M226.206 28.044C224.214 28.044 222.426 27.624 220.842 26.784C219.258 25.944 218.022 24.78 217.134 23.292C216.246 21.78 215.802 20.076 215.802 18.18C215.802 16.284 216.246 14.592 217.134 13.104C218.022 11.616 219.246 10.452 220.806 9.612C222.39 8.772 224.19 8.352 226.206 8.352C228.102 8.352 229.758 8.736 231.174 9.504C232.614 10.272 233.694 11.376 234.414 12.816L230.958 14.832C230.406 13.944 229.71 13.284 228.87 12.852C228.054 12.396 227.154 12.168 226.17 12.168C224.49 12.168 223.098 12.72 221.994 13.824C220.89 14.904 220.338 16.356 220.338 18.18C220.338 20.004 220.878 21.468 221.958 22.572C223.062 23.652 224.466 24.192 226.17 24.192C227.154 24.192 228.054 23.976 228.87 23.544C229.71 23.088 230.406 22.416 230.958 21.528L234.414 23.544C233.67 24.984 232.578 26.1 231.138 26.892C229.722 27.66 228.078 28.044 226.206 28.044Z" fill="url(#paint11_linear_361_2898)"/>
<defs>
<linearGradient id="paint0_linear_361_2898" x1="234.414" y1="-1.27528e-07" x2="223.397" y2="69.9566" gradientUnits="userSpaceOnUse">
<stop stop-color="#A950EE"/>
<stop offset="1" stop-color="#2339FA"/>
</linearGradient>
<linearGradient id="paint1_linear_361_2898" x1="234.414" y1="-1.27528e-07" x2="223.397" y2="69.9566" gradientUnits="userSpaceOnUse">
<stop stop-color="#A950EE"/>
<stop offset="1" stop-color="#2339FA"/>
</linearGradient>
<linearGradient id="paint2_linear_361_2898" x1="234.414" y1="-1.27528e-07" x2="223.397" y2="69.9566" gradientUnits="userSpaceOnUse">
<stop stop-color="#A950EE"/>
<stop offset="1" stop-color="#2339FA"/>
</linearGradient>
<linearGradient id="paint3_linear_361_2898" x1="234.414" y1="-1.27528e-07" x2="223.397" y2="69.9566" gradientUnits="userSpaceOnUse">
<stop stop-color="#A950EE"/>
<stop offset="1" stop-color="#2339FA"/>
</linearGradient>
<linearGradient id="paint4_linear_361_2898" x1="234.414" y1="-1.27528e-07" x2="223.397" y2="69.9566" gradientUnits="userSpaceOnUse">
<stop stop-color="#A950EE"/>
<stop offset="1" stop-color="#2339FA"/>
</linearGradient>
<linearGradient id="paint5_linear_361_2898" x1="234.414" y1="-1.27528e-07" x2="223.397" y2="69.9566" gradientUnits="userSpaceOnUse">
<stop stop-color="#A950EE"/>
<stop offset="1" stop-color="#2339FA"/>
</linearGradient>
<linearGradient id="paint6_linear_361_2898" x1="234.414" y1="-1.27528e-07" x2="223.397" y2="69.9566" gradientUnits="userSpaceOnUse">
<stop stop-color="#A950EE"/>
<stop offset="1" stop-color="#2339FA"/>
</linearGradient>
<linearGradient id="paint7_linear_361_2898" x1="234.414" y1="-1.27528e-07" x2="223.397" y2="69.9566" gradientUnits="userSpaceOnUse">
<stop stop-color="#A950EE"/>
<stop offset="1" stop-color="#2339FA"/>
</linearGradient>
<linearGradient id="paint8_linear_361_2898" x1="234.414" y1="-1.27528e-07" x2="223.397" y2="69.9566" gradientUnits="userSpaceOnUse">
<stop stop-color="#A950EE"/>
<stop offset="1" stop-color="#2339FA"/>
</linearGradient>
<linearGradient id="paint9_linear_361_2898" x1="234.414" y1="-1.27528e-07" x2="223.397" y2="69.9566" gradientUnits="userSpaceOnUse">
<stop stop-color="#A950EE"/>
<stop offset="1" stop-color="#2339FA"/>
</linearGradient>
<linearGradient id="paint10_linear_361_2898" x1="234.414" y1="-1.27528e-07" x2="223.397" y2="69.9566" gradientUnits="userSpaceOnUse">
<stop stop-color="#A950EE"/>
<stop offset="1" stop-color="#2339FA"/>
</linearGradient>
<linearGradient id="paint11_linear_361_2898" x1="234.414" y1="-1.27528e-07" x2="223.397" y2="69.9566" gradientUnits="userSpaceOnUse">
<stop stop-color="#A950EE"/>
<stop offset="1" stop-color="#2339FA"/>
</linearGradient>
</defs>
</svg>
