<svg width="48" height="48" viewBox="0 0 48 48" fill="none" xmlns="http://www.w3.org/2000/svg">
<path d="M48 24C48 37.2548 37.2548 48 24 48C10.7452 48 0 37.2548 0 24C0 10.7452 10.7452 0 24 0C37.2548 0 48 10.7452 48 24ZM2.88 24C2.88 35.6643 12.3357 45.12 24 45.12C35.6643 45.12 45.12 35.6643 45.12 24C45.12 12.3357 35.6643 2.88 24 2.88C12.3357 2.88 2.88 12.3357 2.88 24Z" fill="#F1F0FE"/>
<path d="M24 1.44C24 0.64471 24.6454 -0.00450387 25.4392 0.0431717C30.509 0.34764 35.3657 2.25449 39.2982 5.50768C43.6014 9.06763 46.5284 14.0169 47.5749 19.5029C48.6214 24.9888 47.7219 30.668 45.0314 35.5621C42.3408 40.4562 38.0277 44.2587 32.835 46.3146C27.6423 48.3706 21.8951 48.5512 16.5836 46.8254C11.272 45.0995 6.72866 41.5753 3.73613 36.8598C0.743592 32.1444 -0.510727 26.5329 0.189248 20.992C0.828907 15.9286 3.06397 11.2139 6.55127 7.52145C7.09733 6.94326 8.01221 6.97472 8.55662 7.55446C9.10104 8.1342 9.06831 9.04233 8.527 9.62497C5.52582 12.8552 3.60218 16.9546 3.04654 21.353C2.43056 26.2289 3.53436 31.167 6.16779 35.3167C8.80122 39.4663 12.7994 42.5676 17.4736 44.0863C22.1477 45.605 27.2052 45.4461 31.7748 43.6369C36.3444 41.8277 40.1399 38.4814 42.5076 34.1746C44.8753 29.8678 45.6668 24.8702 44.7459 20.0425C43.825 15.2149 41.2492 10.8595 37.4624 7.72676C34.0465 4.90086 29.838 3.22938 25.439 2.92905C24.6455 2.87489 24 2.23529 24 1.44Z" fill="#2ED47A"/>
<path d="M22.2727 24.608C22.8247 24.76 23.2527 25.02 23.5567 25.388C23.8687 25.756 24.0247 26.2 24.0247 26.72C24.0247 27.456 23.7407 28.036 23.1727 28.46C22.6127 28.876 21.8567 29.084 20.9047 29.084C19.9527 29.084 19.1927 28.876 18.6247 28.46C18.0647 28.036 17.7847 27.456 17.7847 26.72C17.7847 26.192 17.9407 25.744 18.2527 25.376C18.5647 25.008 19.0007 24.752 19.5607 24.608C19.0647 24.448 18.6767 24.196 18.3967 23.852C18.1247 23.508 17.9887 23.104 17.9887 22.64C17.9887 22.184 18.1127 21.784 18.3607 21.44C18.6087 21.096 18.9527 20.832 19.3927 20.648C19.8327 20.456 20.3367 20.36 20.9047 20.36C21.4727 20.36 21.9767 20.456 22.4167 20.648C22.8567 20.832 23.2007 21.096 23.4487 21.44C23.6967 21.784 23.8207 22.184 23.8207 22.64C23.8207 23.104 23.6847 23.512 23.4127 23.864C23.1407 24.208 22.7607 24.456 22.2727 24.608ZM19.1767 22.748C19.1767 23.164 19.3327 23.504 19.6447 23.768C19.9567 24.024 20.3767 24.188 20.9047 24.26C21.4327 24.188 21.8527 24.024 22.1647 23.768C22.4767 23.504 22.6327 23.164 22.6327 22.748C22.6327 22.308 22.4767 21.968 22.1647 21.728C21.8607 21.48 21.4407 21.356 20.9047 21.356C20.3687 21.356 19.9447 21.48 19.6327 21.728C19.3287 21.968 19.1767 22.308 19.1767 22.748ZM20.9047 28.088C21.5207 28.088 21.9967 27.964 22.3327 27.716C22.6687 27.468 22.8367 27.108 22.8367 26.636C22.8367 26.196 22.6607 25.848 22.3087 25.592C21.9647 25.328 21.4967 25.16 20.9047 25.088C20.3127 25.16 19.8407 25.328 19.4887 25.592C19.1447 25.848 18.9727 26.196 18.9727 26.636C18.9727 27.108 19.1407 27.468 19.4767 27.716C19.8127 27.964 20.2887 28.088 20.9047 28.088ZM29.468 24.608C30.02 24.76 30.448 25.02 30.752 25.388C31.064 25.756 31.22 26.2 31.22 26.72C31.22 27.456 30.936 28.036 30.368 28.46C29.808 28.876 29.052 29.084 28.1 29.084C27.148 29.084 26.388 28.876 25.82 28.46C25.26 28.036 24.98 27.456 24.98 26.72C24.98 26.192 25.136 25.744 25.448 25.376C25.76 25.008 26.196 24.752 26.756 24.608C26.26 24.448 25.872 24.196 25.592 23.852C25.32 23.508 25.184 23.104 25.184 22.64C25.184 22.184 25.308 21.784 25.556 21.44C25.804 21.096 26.148 20.832 26.588 20.648C27.028 20.456 27.532 20.36 28.1 20.36C28.668 20.36 29.172 20.456 29.612 20.648C30.052 20.832 30.396 21.096 30.644 21.44C30.892 21.784 31.016 22.184 31.016 22.64C31.016 23.104 30.88 23.512 30.608 23.864C30.336 24.208 29.956 24.456 29.468 24.608ZM26.372 22.748C26.372 23.164 26.528 23.504 26.84 23.768C27.152 24.024 27.572 24.188 28.1 24.26C28.628 24.188 29.048 24.024 29.36 23.768C29.672 23.504 29.828 23.164 29.828 22.748C29.828 22.308 29.672 21.968 29.36 21.728C29.056 21.48 28.636 21.356 28.1 21.356C27.564 21.356 27.14 21.48 26.828 21.728C26.524 21.968 26.372 22.308 26.372 22.748ZM28.1 28.088C28.716 28.088 29.192 27.964 29.528 27.716C29.864 27.468 30.032 27.108 30.032 26.636C30.032 26.196 29.856 25.848 29.504 25.592C29.16 25.328 28.692 25.16 28.1 25.088C27.508 25.16 27.036 25.328 26.684 25.592C26.34 25.848 26.168 26.196 26.168 26.636C26.168 27.108 26.336 27.468 26.672 27.716C27.008 27.964 27.484 28.088 28.1 28.088Z" fill="#2ED47A"/>
</svg>
