<svg width="44" height="24" viewBox="0 0 44 24" fill="none" xmlns="http://www.w3.org/2000/svg">
<path d="M18 8C18 6.4087 17.3679 4.88258 16.2426 3.75736C15.1174 2.63214 13.5913 2 12 2C10.4087 2 8.88258 2.63214 7.75736 3.75736C6.63214 4.88258 6 6.4087 6 8C6 15 3 17 3 17H21C21 17 18 15 18 8Z" stroke="#14153A" stroke-width="1.6" stroke-linecap="round" stroke-linejoin="round"/>
<path d="M13.73 21C13.5542 21.3031 13.3018 21.5547 12.9982 21.7295C12.6946 21.9044 12.3504 21.9965 12 21.9965C11.6496 21.9965 11.3054 21.9044 11.0018 21.7295C10.6981 21.5547 10.4458 21.3031 10.27 21" stroke="#14153A" stroke-width="1.6" stroke-linecap="round" stroke-linejoin="round"/>
<rect x="28" y="4" width="16" height="16" rx="8" fill="#3145F5"/>
<path d="M37.86 14.32V15H34.124V14.384L36.084 12.232C36.3347 11.9547 36.516 11.704 36.628 11.48C36.7453 11.2507 36.804 11.024 36.804 10.8C36.804 10.512 36.7213 10.2933 36.556 10.144C36.3907 9.98933 36.1507 9.912 35.836 9.912C35.308 9.912 34.78 10.12 34.252 10.536L33.956 9.928C34.18 9.72 34.4653 9.55467 34.812 9.432C35.1587 9.304 35.508 9.24 35.86 9.24C36.404 9.24 36.8333 9.376 37.148 9.648C37.468 9.92 37.628 10.288 37.628 10.752C37.628 11.0827 37.556 11.3973 37.412 11.696C37.268 11.9893 37.028 12.3173 36.692 12.68L35.172 14.32H37.86Z" fill="white"/>
</svg>
